<?xml version="1.0" encoding="iso-8859-1"?>
<!-- Generator: Adobe Illustrator 18.1.1, SVG Export Plug-In . SVG Version: 6.00 Build 0)  -->
<svg xmlns="http://www.w3.org/2000/svg" xmlns:xlink="http://www.w3.org/1999/xlink" version="1.1" id="Capa_1" x="0px" y="0px" viewBox="0 0 478.148 478.148" style="enable-background:new 0 0 478.148 478.148;" xml:space="preserve" width="512px" height="512px">
<g>
	<path id="Quora" d="M350.715,398.749c60.627-37.895,100.873-105.894,100.873-183.277C451.568,96.45,356.354,0,239.084,0   C121.694,0,26.56,96.45,26.56,215.453c0,118.924,95.115,215.453,212.524,215.453c17.254,0,34.089-2.251,50.068-6.057   c20.103,36.759,50.885,62.62,116.194,50.108v-36.46C405.326,438.497,363.407,428.097,350.715,398.749z M349.281,243.964   c0,35.862-11.576,68.497-29.985,92.664c-23.57-24.765-60.129-45.266-106.571-42.577v4.284v37.914c0,0,31.519,1.335,52.997,38.293   c-7.989,2.331-16.417,3.686-25.044,3.686c-59.99,0-108.563-60.189-108.563-134.285c0-9.563,0-46.003,0-55.547   c0-74.215,48.574-134.404,108.563-134.404s108.563,60.189,108.563,134.404C349.281,197.96,349.281,234.4,349.281,243.964z" fill="#FFFFFF"/>
</g>
<g>
</g>
<g>
</g>
<g>
</g>
<g>
</g>
<g>
</g>
<g>
</g>
<g>
</g>
<g>
</g>
<g>
</g>
<g>
</g>
<g>
</g>
<g>
</g>
<g>
</g>
<g>
</g>
<g>
</g>
</svg>
